<svg width="1897" height="852" viewBox="0 0 1897 852" fill="none" xmlns="http://www.w3.org/2000/svg">
<g clip-path="url(#clip0_18_45)">
<rect width="1897" height="852" fill="#1E1E1E"/>
<path fill-rule="evenodd" clip-rule="evenodd" d="M1897 0C1897 0 1897 652.103 1897 750.223C1850.82 759.935 1795.75 737.011 1747.76 746.602C1700.21 756.104 1658.45 799.826 1608.93 807.497C1560.88 814.94 1506.73 786.134 1457 791.767C1408.57 797.254 1363.05 837.405 1313.21 841.096C1264.51 844.703 1213.01 811.781 1163.12 813.601C1114.25 815.384 1065.55 852 1015.69 852C965.822 852 917.134 815.384 868.265 813.601C818.378 811.781 766.883 844.704 718.187 841.098C668.343 837.407 622.819 797.255 574.389 791.769C524.662 786.136 470.521 814.942 422.465 807.5C372.938 799.829 331.183 756.108 283.628 746.605C234.405 736.769 177.722 760.738 130.83 749.04C82.399 736.959 45.5547 690.178 0 675.725C0 641.012 0 0 0 0H1897Z" fill="#3A67B1"/>
<rect y="575" width="1897" height="277" fill="#3A67B1"/>
</g>
<defs>
<clipPath id="clip0_18_45">
<rect width="1897" height="852" fill="white"/>
</clipPath>
</defs>
</svg>
